
<global>
amp_veltrack=0
ampeg_release=0.35
xf_cccurve=gain
xfin_hicc1=127
xfout_hicc1=127
xfout_locc1=127
</global>

<group>
group_label=FF

<region>
hikey=B4
hivel=127
lokey=A#4
loop_end=251193
loop_mode=loop_continuous
loop_start=55742
loop_xfade=23683
lovel=0
offset=969
pitch_keycenter=A#4
sample=Tenor_sustain_FF_A#4.opus
tune=-2
</region>

<region>
hikey=C#5
hivel=127
lokey=C5
loop_end=254045
loop_mode=loop_continuous
loop_start=56375
loop_xfade=23952
lovel=0
offset=1351
pitch_keycenter=C5
sample=Tenor_sustain_FF_C5.opus
tune=-2
</region>

<region>
hikey=F5
hivel=127
lokey=D5
loop_end=250363
loop_mode=loop_continuous
loop_start=55558
loop_xfade=23605
lovel=0
offset=799
pitch_keycenter=D5
sample=Tenor_sustain_FF_D5.opus
tune=-3
</region>

<region>
hikey=F4
hivel=127
lokey=E4
loop_end=269271
loop_mode=loop_continuous
loop_start=59754
loop_xfade=25387
lovel=0
offset=6932
pitch_keycenter=E4
sample=Tenor_sustain_FF_E4.opus
tune=+2
</region>

<region>
hikey=G4
hivel=127
lokey=F#4
loop_end=274606
loop_mode=loop_continuous
loop_start=60938
loop_xfade=25890
lovel=0
offset=5064
pitch_keycenter=F#4
sample=Tenor_sustain_FF_F#4.opus
tune=-1
</region>

<region>
hikey=A4
hivel=127
lokey=G#4
loop_end=268057
loop_mode=loop_continuous
loop_start=59484
loop_xfade=25273
lovel=0
offset=4898
pitch_keycenter=G#4
sample=Tenor_sustain_FF_G#4.opus
</region>

<region>
hikey=C#4
hivel=127
lokey=C4
loop_end=276643
loop_mode=loop_continuous
loop_start=61390
loop_xfade=26082
lovel=0
offset=5069
sample=Tenor_sustain_FF_C4.opus
tune=+2
</region>

<region>
hikey=D#4
hivel=127
lokey=D4
loop_end=269055
loop_mode=loop_continuous
loop_start=59706
loop_xfade=25367
lovel=0
offset=6874
pitch_keycenter=D4
sample=Tenor_sustain_FF_D4.opus
tune=-2
</region>

<region>
hikey=B3
hivel=127
lokey=A#3
loop_end=270448
loop_mode=loop_continuous
loop_start=60015
loop_xfade=25498
lovel=0
offset=335
pitch_keycenter=A#3
sample=Tenor_sustain_FF_A#3.opus
tune=-2
</region>

<region>
hikey=A3
hivel=127
lokey=G#3
loop_end=269105
loop_mode=loop_continuous
loop_start=59717
loop_xfade=25372
lovel=0
pitch_keycenter=G#3
sample=Tenor_sustain_FF_G#3.opus
tune=-3
</region>

<region>
hikey=F3
hivel=127
lokey=E3
loop_end=249022
loop_mode=loop_continuous
loop_start=55260
loop_xfade=23478
lovel=0
offset=719
pitch_keycenter=E3
sample=Tenor_sustain_FF_E3.opus
tune=-3
</region>

<region>
hikey=G3
hivel=127
lokey=F#3
loop_end=261128
loop_mode=loop_continuous
loop_start=57947
loop_xfade=24620
lovel=0
offset=1881
pitch_keycenter=F#3
sample=Tenor_sustain_FF_F#3.opus
tune=-2
</region>

<region>
hikey=B2
hivel=127
lokey=A#2
loop_end=258894
loop_mode=loop_continuous
loop_start=57451
loop_xfade=24409
lovel=0
offset=2568
pitch_keycenter=A#2
sample=Tenor_sustain_FF_A#2.opus
</region>

<region>
hikey=C#3
hivel=127
lokey=C3
loop_end=273020
loop_mode=loop_continuous
loop_start=60586
loop_xfade=25741
lovel=0
offset=2860
pitch_keycenter=C3
sample=Tenor_sustain_FF_C3.opus
</region>

<region>
hikey=D#3
hivel=127
lokey=D3
loop_end=274228
loop_mode=loop_continuous
loop_start=60854
loop_xfade=25855
lovel=0
offset=4703
pitch_keycenter=D3
sample=Tenor_sustain_FF_D3.opus
</region>

<region>
hikey=A2
hivel=127
lokey=G#2
loop_end=250737
loop_mode=loop_continuous
loop_start=55641
loop_xfade=23640
lovel=0
offset=674
pitch_keycenter=G#2
sample=Tenor_sustain_FF_G#2.opus
</region>
</group>